HIERARCHY
ROOT Root
{
	OFFSET 0.00000 0.00000 0.00000
	CHANNELS 6 Xposition Yposition Zposition Zrotation Xrotation Yrotation
	JOINT Hips
	{
		OFFSET 0 0 0	
		CHANNELS 3 Zrotation Xrotation Yrotation
		JOINT Spine
		{
			OFFSET 0 4 0	
			CHANNELS 3 Zrotation Xrotation Yrotation
			JOINT Spine1
			{
				OFFSET 0 19.4 0	
				CHANNELS 3 Zrotation Xrotation Yrotation
				JOINT Spine2
				{
					OFFSET 0 16.6 0	
					CHANNELS 3 Zrotation Xrotation Yrotation
					JOINT LeftCollar
					{
						OFFSET 0 10 0	
						CHANNELS 3 Zrotation Xrotation Yrotation
						JOINT LeftArm
						{
							OFFSET 15.6 -2 3	
							CHANNELS 3 Zrotation Xrotation Yrotation
							JOINT LeftForeArm
							{
								OFFSET 3.5 -27 -1	
								CHANNELS 3 Zrotation Xrotation Yrotation
								JOINT LeftHand
								{
									OFFSET 1 -27 1	
									CHANNELS 3 Zrotation Xrotation Yrotation
									End Site
									{
										OFFSET 0 -15 0
									}
								}
							}
						}
					}
					JOINT RightCollar
					{
						OFFSET 0 10 0	
						CHANNELS 3 Zrotation Xrotation Yrotation
						JOINT RightArm
						{
							OFFSET -15.6 -2 3	
							CHANNELS 3 Zrotation Xrotation Yrotation
							JOINT RightForeArm
							{
								OFFSET -3.5 -27 -1	
								CHANNELS 3 Zrotation Xrotation Yrotation
								JOINT RightHand
								{
									OFFSET -1 -27 1	
									CHANNELS 3 Zrotation Xrotation Yrotation
									End Site
									{
										OFFSET 0 -15 0
									}
								}
							}
						}
					}
					JOINT Neck
					{
						OFFSET 0 10 0	
						CHANNELS 3 Zrotation Xrotation Yrotation
						JOINT Head
						{
							OFFSET 0 12.7 3	
							CHANNELS 3 Zrotation Xrotation Yrotation
							End Site
							{
								OFFSET 0 12.7 3
							}
						}
					}
				}
			}
		}
	}
	JOINT LeftHip
	{
		OFFSET 0 0 0	
		CHANNELS 3 Zrotation Xrotation Yrotation
		JOINT LeftUpLeg
		{
			OFFSET 8.8 -6 0	
			CHANNELS 3 Zrotation Xrotation Yrotation
			JOINT LeftLeg
			{
				OFFSET 0 -39 2	
				CHANNELS 3 Zrotation Xrotation Yrotation
				JOINT LeftFoot
				{
					OFFSET 0 -43 -2	
					CHANNELS 3 Zrotation Xrotation Yrotation
					JOINT LeftFootFront
					{
						OFFSET 0 -7 8.5	
						CHANNELS 3 Zrotation Xrotation Yrotation
						End Site
						{
							OFFSET 0 -0.5 9
						}
					}
				}
				JOINT LeftHeel
				{
					OFFSET 0 -43 -2	
					CHANNELS 3 Zrotation Xrotation Yrotation
					End Site
					{
						OFFSET 0 -7.5 -5
					}
				}
			}
		}
	}
	JOINT RightHip
	{
		OFFSET 0 0 0	
		CHANNELS 3 Zrotation Xrotation Yrotation
		JOINT RightUpLeg
		{
			OFFSET -8.8 -6 0	
			CHANNELS 3 Zrotation Xrotation Yrotation
			JOINT RightLeg
			{
				OFFSET 0 -39 2	
				CHANNELS 3 Zrotation Xrotation Yrotation
				JOINT RightFoot
				{
					OFFSET 0 -43 -2	
					CHANNELS 3 Zrotation Xrotation Yrotation
					JOINT RightFootFront
					{
						OFFSET 0 -7 8.5	
						CHANNELS 3 Zrotation Xrotation Yrotation
						End Site
						{
							OFFSET 0 -0.5 9
						}
					}
				}
				JOINT RightHeel
				{
					OFFSET 0 -43 -2	
					CHANNELS 3 Zrotation Xrotation Yrotation
					End Site
					{
						OFFSET 0 -7.5 -5
					}
				}
			}
		}
	}
}
MOTION
Frames: 30
Frame Time: 0.05
0 95.5 0 -0 0 -0 -0 0 -0 -0 0 -0 -6.7231 5.7563 91.961 -0 0 -0 -0 0 -0 1.7936 2.6485 -0.75535 -42.692 -32.244 -37.396 -5.8305 -5.9043 11.195 -0 0 -0 -23.528 -37.089 -24.035 -0.65934 -50.038 -8.5856 -32.567 -15.537 -25.946 3.4575 2.0535 -22.255 3.4575 2.0535 -22.255 -0 0 -0 -0 0 -0 -0 0 -0 -0 0 -0 -0 0 -0 -0 0 -0 -0 0 -0 -0 0 -0 -0 0 -0 -0 0 -0 -0 0 -0 -0 0 -0 
0 95.5 0 -0 0 -0 -0 0 -0 -0 0 -0 -6.9775 5.5466 92.293 -0 0 -0 -0 0 -0 1.8383 2.4514 -1.0039 -41.817 -32.192 -36.292 -5.1978 -6.6753 12.344 -0 0 -0 -24.738 -38.905 -24.83 -4.4294 -45.764 -12.099 -28.415 -17.779 -26.418 3.6263 2.0983 -22.215 3.6263 2.0983 -22.215 -0 0 -0 -0 0 -0 -0 0 -0 -0 0 -0 -0 0 -0 -0 0 -0 -0 0 -0 -0 0 -0 -0 0 -0 -0 0 -0 -0 0 -0 -0 0 -0 
0 95.5 0 -0 0 -0 -0 0 -0 -0 0 -0 -6.7111 5.5122 92.449 -0 0 -0 -0 0 -0 1.8589 2.5071 -1.7507 -40.579 -31.808 -35.864 -4.95 -7.1205 13.47 -0 0 -0 -19.646 -36.542 -21.064 -6.2355 -50.179 -12.08 -25.967 -17.58 -24.695 3.8094 2.1943 -22.232 3.8094 2.1943 -22.232 -0 0 -0 -0 0 -0 -0 0 -0 -0 0 -0 -0 0 -0 -0 0 -0 -0 0 -0 -0 0 -0 -0 0 -0 -0 0 -0 -0 0 -0 -0 0 -0 
0 95.5 0 -0 0 -0 -0 0 -0 -0 0 -0 -5.9928 5.6926 91.989 -0 0 -0 -0 0 -0 1.802 2.9114 -2.1067 -39.957 -31.29 -35.912 -4.8861 -7.0055 13.697 -0 0 -0 -11.995 -30.944 -14.237 -5.6668 -58.762 -9.7228 -24.526 -17.753 -20.646 3.8224 2.3655 -22.098 3.8224 2.3655 -22.098 -0 0 -0 -0 0 -0 -0 0 -0 -0 0 -0 -0 0 -0 -0 0 -0 -0 0 -0 -0 0 -0 -0 0 -0 -0 0 -0 -0 0 -0 -0 0 -0 
0 95.5 0 -0 0 -0 -0 0 -0 -0 0 -0 -5.1522 6.385 90.968 -0 0 -0 -0 0 -0 0.97103 3.2002 -1.9849 -39.446 -30.722 -35.756 -4.9922 -6.7977 13.461 -0 0 -0 -4.9051 -24.524 -9.0553 6.9447 -66.62 6.5283 -26.301 -18.295 -17.041 3.4477 2.5383 -21.788 3.4477 2.5383 -21.788 -0 0 -0 -0 0 -0 -0 0 -0 -0 0 -0 -0 0 -0 -0 0 -0 -0 0 -0 -0 0 -0 -0 0 -0 -0 0 -0 -0 0 -0 -0 0 -0 
0 95.5 0 -0 0 -0 -0 0 -0 -0 0 -0 -4.4327 7.5096 89.382 -0 0 -0 -0 0 -0 -0.52444 3.2506 -1.4874 -38.754 -30.379 -35.431 -5.1399 -6.6814 13.317 -0 0 -0 -0.44414 -19.119 -3.857 26.249 -69.087 31.026 -34.283 -17.381 -19.502 2.8857 2.6528 -21.227 2.8857 2.6528 -21.227 -0 0 -0 -0 0 -0 -0 0 -0 -0 0 -0 -0 0 -0 -0 0 -0 -0 0 -0 -0 0 -0 -0 0 -0 -0 0 -0 -0 0 -0 -0 0 -0 
0 95.5 0 -0 0 -0 -0 0 -0 -0 0 -0 -3.8461 8.8935 87.72 -0 0 -0 -0 0 -0 -1.9702 3.1961 -0.87994 -38.713 -30.141 -35.263 -5.1236 -6.583 13.28 -0 0 -0 0.35491 -16.59 3.1956 28.521 -70.015 35.889 -44.387 -15.972 -24.368 2.4136 2.672 -20.613 2.4136 2.672 -20.613 -0 0 -0 -0 0 -0 -0 0 -0 -0 0 -0 -0 0 -0 -0 0 -0 -0 0 -0 -0 0 -0 -0 0 -0 -0 0 -0 -0 0 -0 -0 0 -0 
0 95.5 0 -0 0 -0 -0 0 -0 -0 0 -0 -3.7077 9.6091 87.364 -0 0 -0 -0 0 -0 -2.3889 3.0946 -0.90024 -39.514 -30.142 -36.401 -5.2887 -6.3714 13.468 -0 0 -0 -1.1973 -17.599 4.1851 23.975 -69.656 28.86 -50.325 -15.367 -26.21 2.5809 2.5297 -20.571 2.5809 2.5297 -20.571 -0 0 -0 -0 0 -0 -0 0 -0 -0 0 -0 -0 0 -0 -0 0 -0 -0 0 -0 -0 0 -0 -0 0 -0 -0 0 -0 -0 0 -0 -0 0 -0 
0 95.5 0 -0 0 -0 -0 0 -0 -0 0 -0 -4.4629 9.2825 88.43 -0 0 -0 -0 0 -0 -1.6471 2.4935 -1.3186 -40.712 -30.422 -38.369 -5.9271 -6.068 13.232 -0 0 -0 -3.9996 -21.422 -2.6939 20.952 -67.99 24.483 -50.171 -9.8241 -28.352 3.2464 1.976 -21.123 3.2464 1.976 -21.123 -0 0 -0 -0 0 -0 -0 0 -0 -0 0 -0 -0 0 -0 -0 0 -0 -0 0 -0 -0 0 -0 -0 0 -0 -0 0 -0 -0 0 -0 -0 0 -0 
0 95.5 0 -0 0 -0 -0 0 -0 -0 0 -0 -5.237 8.5137 89.672 -0 0 -0 -0 0 -0 -0.6721 2.267 -1.1883 -42.075 -30.876 -39.903 -6.41 -5.8531 12.171 -0 0 -0 -8.4116 -26.682 -11.061 13.18 -64.87 12.611 -45.231 -8.1099 -26.39 3.715 1.4658 -21.719 3.715 1.4658 -21.719 -0 0 -0 -0 0 -0 -0 0 -0 -0 0 -0 -0 0 -0 -0 0 -0 -0 0 -0 -0 0 -0 -0 0 -0 -0 0 -0 -0 0 -0 -0 0 -0 
0 95.5 0 -0 0 -0 -0 0 -0 -0 0 -0 -5.6843 7.3981 90.738 -0 0 -0 -0 0 -0 0.39883 2.4704 -0.83666 -42.983 -31.271 -40.292 -6.3294 -5.9135 11.248 -0 0 -0 -13.329 -32.161 -17.643 2.7808 -57.485 -2.6876 -38.001 -12.303 -23.304 4.1285 1.2713 -22.2 4.1285 1.2713 -22.2 -0 0 -0 -0 0 -0 -0 0 -0 -0 0 -0 -0 0 -0 -0 0 -0 -0 0 -0 -0 0 -0 -0 0 -0 -0 0 -0 -0 0 -0 -0 0 -0 
0 95.5 0 -0 0 -0 -0 0 -0 -0 0 -0 -5.7382 6.88 91.264 -0 0 -0 -0 0 -0 0.58159 2.6426 -0.57153 -42.679 -31.215 -39.497 -5.844 -6.2737 11.446 -0 0 -0 -17.057 -35.029 -20.982 -1.4137 -49.526 -8.4209 -32.852 -16.305 -24.619 4.2849 1.3355 -22.419 4.2849 1.3355 -22.419 -0 0 -0 -0 0 -0 -0 0 -0 -0 0 -0 -0 0 -0 -0 0 -0 -0 0 -0 -0 0 -0 -0 0 -0 -0 0 -0 -0 0 -0 -0 0 -0 
0 95.5 0 -0 0 -0 -0 0 -0 -0 0 -0 -5.7174 6.7419 91.441 -0 0 -0 -0 0 -0 0.45183 2.5731 -0.67306 -41.417 -30.744 -38.524 -5.5515 -6.867 12.441 -0 0 -0 -16.216 -33.86 -19.176 -4.2177 -48.346 -9.9075 -29.313 -18.369 -26.957 4.3511 1.3352 -22.485 4.3511 1.3352 -22.485 -0 0 -0 -0 0 -0 -0 0 -0 -0 0 -0 -0 0 -0 -0 0 -0 -0 0 -0 -0 0 -0 -0 0 -0 -0 0 -0 -0 0 -0 -0 0 -0 
0 95.5 0 -0 0 -0 -0 0 -0 -0 0 -0 -5.4204 6.4487 91.728 -0 0 -0 -0 0 -0 0.72657 2.7325 -1.3071 -40.241 -30.317 -38.312 -5.4416 -6.9588 13.073 -0 0 -0 -11.024 -29.393 -13.426 -5.991 -54.085 -11.805 -26.18 -20.318 -24.02 4.5211 1.3756 -22.652 4.5211 1.3756 -22.652 -0 0 -0 -0 0 -0 -0 0 -0 -0 0 -0 -0 0 -0 -0 0 -0 -0 0 -0 -0 0 -0 -0 0 -0 -0 0 -0 -0 0 -0 -0 0 -0 
0 95.5 0 -0 0 -0 -0 0 -0 -0 0 -0 -4.6078 6.5933 91.156 -0 0 -0 -0 0 -0 0.56897 3.3782 -1.4758 -39.634 -30.017 -37.895 -5.3224 -6.7142 12.906 -0 0 -0 -4.9691 -23.157 -7.6561 -0.63843 -62.174 -3.719 -25.553 -20.994 -19.509 4.3385 1.7219 -22.512 4.3385 1.7219 -22.512 -0 0 -0 -0 0 -0 -0 0 -0 -0 0 -0 -0 0 -0 -0 0 -0 -0 0 -0 -0 0 -0 -0 0 -0 -0 0 -0 -0 0 -0 -0 0 -0 
0 95.5 0 -0 0 -0 -0 0 -0 -0 0 -0 -4.0598 7.2918 90.057 -0 0 -0 -0 0 -0 -0.25757 3.5653 -1.3961 -39.054 -29.918 -37.208 -5.344 -6.5261 12.786 -0 0 -0 -0.12701 -17.456 -4.0031 18.678 -67.46 21.202 -31.703 -19.152 -20.266 3.8431 1.9607 -22.133 3.8431 1.9607 -22.133 -0 0 -0 -0 0 -0 -0 0 -0 -0 0 -0 -0 0 -0 -0 0 -0 -0 0 -0 -0 0 -0 -0 0 -0 -0 0 -0 -0 0 -0 -0 0 -0 
0 95.5 0 -0 0 -0 -0 0 -0 -0 0 -0 -3.7537 8.3217 88.604 -0 0 -0 -0 0 -0 -1.3837 3.2998 -0.94287 -38.766 -29.864 -36.505 -5.3837 -6.3074 12.744 -0 0 -0 2.0119 -14.225 1.5214 29.007 -68.56 36.251 -42.913 -16.416 -26.445 3.3442 2.0699 -21.504 3.3442 2.0699 -21.504 -0 0 -0 -0 0 -0 -0 0 -0 -0 0 -0 -0 0 -0 -0 0 -0 -0 0 -0 -0 0 -0 -0 0 -0 -0 0 -0 -0 0 -0 -0 0 -0 
0 95.5 0 -0 0 -0 -0 0 -0 -0 0 -0 -3.6432 9.421 87.663 -0 0 -0 -0 0 -0 -2.2836 2.951 -0.41218 -39.349 -29.765 -36.567 -5.4229 -6.09 12.761 -0 0 -0 1.4549 -14.325 5.196 24.843 -68.907 31.439 -50.941 -14.39 -30.979 3.077 2.0661 -21.042 3.077 2.0661 -21.042 -0 0 -0 -0 0 -0 -0 0 -0 -0 0 -0 -0 0 -0 -0 0 -0 -0 0 -0 -0 0 -0 -0 0 -0 -0 0 -0 -0 0 -0 -0 0 -0 
0 95.5 0 -0 0 -0 -0 0 -0 -0 0 -0 -4.2644 9.6803 88.636 -0 0 -0 -0 0 -0 -2.2027 2.4676 -0.68054 -40.401 -29.924 -38.307 -5.7688 -5.916 12.846 -0 0 -0 -0.6858 -17.445 0.69302 20.452 -68.137 24.035 -51.409 -10.31 -32.977 3.3985 1.7119 -21.431 3.3985 1.7119 -21.431 -0 0 -0 -0 0 -0 -0 0 -0 -0 0 -0 -0 0 -0 -0 0 -0 -0 0 -0 -0 0 -0 -0 0 -0 -0 0 -0 -0 0 -0 -0 0 -0 
0 95.5 0 -0 0 -0 -0 0 -0 -0 0 -0 -5.1854 9.0176 90.265 -0 0 -0 -0 0 -0 -1.3169 2.2621 -0.7204 -41.747 -30.283 -40.481 -6.1803 -5.8063 12.134 -0 0 -0 -3.951 -22.622 -8.3392 17.308 -65.948 16.12 -47.808 -9.2429 -30.087 3.9818 1.2492 -22.139 3.9818 1.2492 -22.139 -0 0 -0 -0 0 -0 -0 0 -0 -0 0 -0 -0 0 -0 -0 0 -0 -0 0 -0 -0 0 -0 -0 0 -0 -0 0 -0 -0 0 -0 -0 0 -0 
0 95.5 0 -0 0 -0 -0 0 -0 -0 0 -0 -5.9144 8.1231 91.536 -0 0 -0 -0 0 -0 -0.37272 2.4215 -0.21618 -42.842 -30.552 -41.725 -6.2691 -5.8929 11.092 -0 0 -0 -8.1863 -28.59 -15.971 8.865 -60.473 2.4308 -41.508 -13.021 -26.158 4.3804 0.9828 -22.702 4.3804 0.98279 -22.702 -0 0 -0 -0 0 -0 -0 0 -0 -0 0 -0 -0 0 -0 -0 0 -0 -0 0 -0 -0 0 -0 -0 0 -0 -0 0 -0 -0 0 -0 -0 0 -0 
0 95.5 0 -0 0 -0 -0 0 -0 -0 0 -0 -6.0985 7.5646 92.325 -0 0 -0 -0 0 -0 -0.095324 2.5891 0.0068534 -42.577 -30.42 -41.227 -5.8845 -6.1744 10.805 -0 0 -0 -11.284 -31.698 -19.255 1.2152 -53.04 -5.5783 -35.424 -17.112 -27.863 4.5192 1.1458 -23.033 4.5192 1.1458 -23.033 -0 0 -0 -0 0 -0 -0 0 -0 -0 0 -0 -0 0 -0 -0 0 -0 -0 0 -0 -0 0 -0 -0 0 -0 -0 0 -0 -0 0 -0 -0 0 -0 
0 95.5 0 -0 0 -0 -0 0 -0 -0 0 -0 -6.0781 7.3675 92.537 -0 0 -0 -0 0 -0 -0.18755 2.572 -0.18112 -41.159 -29.829 -39.994 -5.4357 -6.822 11.681 -0 0 -0 -10.11 -29.868 -16 -1.9766 -52.21 -8.8823 -32.984 -20.516 -28.762 4.5789 1.3754 -23.096 4.5789 1.3754 -23.096 -0 0 -0 -0 0 -0 -0 0 -0 -0 0 -0 -0 0 -0 -0 0 -0 -0 0 -0 -0 0 -0 -0 0 -0 -0 0 -0 -0 0 -0 -0 0 -0 
0 95.5 0 -0 0 -0 -0 0 -0 -0 0 -0 -5.7965 7.2121 92.438 -0 0 -0 -0 0 -0 0.014597 2.6419 -0.68825 -39.809 -29.186 -39.41 -5.1961 -6.9817 12.599 -0 0 -0 -5.9168 -24.766 -8.653 -5.5708 -57.611 -12.589 -32.701 -23.066 -26.312 4.6792 1.5123 -23.152 4.6792 1.5123 -23.152 -0 0 -0 -0 0 -0 -0 0 -0 -0 0 -0 -0 0 -0 -0 0 -0 -0 0 -0 -0 0 -0 -0 0 -0 -0 0 -0 -0 0 -0 -0 0 -0 
0 95.5 0 -0 0 -0 -0 0 -0 -0 0 -0 -5.3339 7.5879 91.756 -0 0 -0 -0 0 -0 -0.17054 2.8622 -0.85187 -39.353 -28.774 -38.948 -5.2487 -6.5282 12.556 -0 0 -0 -2.3848 -19.935 -4.1679 -1.1692 -63.71 -4.079 -38.576 -21.596 -28.292 4.4437 1.6471 -23.027 4.4437 1.6471 -23.027 -0 0 -0 -0 0 -0 -0 0 -0 -0 0 -0 -0 0 -0 -0 0 -0 -0 0 -0 -0 0 -0 -0 0 -0 -0 0 -0 -0 0 -0 -0 0 -0 
0 95.5 0 -0 0 -0 -0 0 -0 -0 0 -0 -5.1853 8.8996 90.349 -0 0 -0 -0 0 -0 -1.4547 2.7151 -0.12346 -39.263 -28.718 -38.395 -5.7275 -5.9723 12.173 -0 0 -0 -0.97717 -18.469 -4.2771 10.28 -65.961 13.484 -46.174 -14.473 -34.761 3.6487 1.6052 -22.485 3.6487 1.6052 -22.485 -0 0 -0 -0 0 -0 -0 0 -0 -0 0 -0 -0 0 -0 -0 0 -0 -0 0 -0 -0 0 -0 -0 0 -0 -0 0 -0 -0 0 -0 -0 0 -0 
0 95.5 0 -0 0 -0 -0 0 -0 -0 0 -0 -5.3122 10.456 89.744 -0 0 -0 -0 0 -0 -3.1163 2.0096 0.44279 -39.007 -28.537 -38.376 -6.2227 -5.7583 12.142 -0 0 -0 -1.9598 -20.617 -4.7905 7.4843 -64.76 9.7347 -47.739 -10.823 -36.39 2.9299 1.4449 -22.222 2.9299 1.4449 -22.222 -0 0 -0 -0 0 -0 -0 0 -0 -0 0 -0 -0 0 -0 -0 0 -0 -0 0 -0 -0 0 -0 -0 0 -0 -0 0 -0 -0 0 -0 -0 0 -0 
0 95.5 0 -0 0 -0 -0 0 -0 -0 0 -0 -6.1282 9.9893 91.008 -0 0 -0 -0 0 -0 -2.7497 1.3603 -0.11404 -39.147 -28.734 -39.553 -6.3177 -5.7065 11.996 -0 0 -0 -3.0368 -24.486 -7.8899 0.27753 -62.391 -4.1674 -43.727 -15.44 -30.006 3.7012 1.2258 -22.761 3.7012 1.2258 -22.761 -0 0 -0 -0 0 -0 -0 0 -0 -0 0 -0 -0 0 -0 -0 0 -0 -0 0 -0 -0 0 -0 -0 0 -0 -0 0 -0 -0 0 -0 -0 0 -0 
0 95.5 0 -0 0 -0 -0 0 -0 -0 0 -0 -6.3608 9.4576 92.407 -0 0 -0 -0 0 -0 -2.0996 1.7925 -0.65447 -39.585 -29.377 -41.122 -6.3862 -5.7121 11.671 -0 0 -0 -5.6038 -27.361 -12.28 -3.49 -57.556 -12.347 -37.274 -20.807 -24.935 4.4393 1.2311 -23.51 4.4393 1.2311 -23.51 -0 0 -0 -0 0 -0 -0 0 -0 -0 0 -0 -0 0 -0 -0 0 -0 -0 0 -0 -0 0 -0 -0 0 -0 -0 0 -0 -0 0 -0 -0 0 -0 
0 95.5 0 -0 0 -0 -0 0 -0 -0 0 -0 -6.5289 9.195 92.994 -0 0 -0 -0 0 -0 -1.7691 1.9876 -0.59478 -39.554 -29.636 -41.411 -6.2454 -5.8786 11.121 -0 0 -0 -6.8352 -27.1 -13.543 -3.3678 -53.943 -10.845 -33.847 -24.764 -24.968 4.7008 1.1385 -23.896 4.7008 1.1385 -23.896 -0 0 -0 -0 0 -0 -0 0 -0 -0 0 -0 -0 0 -0 -0 0 -0 -0 0 -0 -0 0 -0 -0 0 -0 -0 0 -0 -0 0 -0 -0 0 -0 
